<svg xmlns="http://www.w3.org/2000/svg" viewBox="0 0 1000 1000"><rect width="100%" height="100%" fill="#fff"/><path d="M-.177-56.177c-32.33 8.61-17.527 81.802-12.299 135.42-4.4 16.64-8.081 813.397-3.681 830.037 8.61 33.1-24.169 103.266 8.741 111.876 9.95 2.49 107.2 12.166 324.15 12.166 235.9 0 279.703-26.03 278.363-29.28-5.17-13.39-22.187-65.432-22.187-71.362 0-9.57 6.12-18.37 19.13-27.55 16.07-11.29 24.87-13.01 56.25-11.67 19.9.96 34.63.38 56.25-1.91 32.14-3.63 35.39-3.25 50.89 6.51 11.86 7.65 17.03 16.26 33.86 57.21l14.16 34.63 12.503 28.292c23.508 53.198 129.609 21.522 149.499 11.002 13.39-7.27 56.4 12.056 63.29-1.524 11.48-22.58-3.208-84.132-13.338-526.474-8.26-360.735 10.839-483.307 8.349-493.257-8.61-32.91-32.144-50.103-65.234-58.713-16.26-4.23-942.816-9.613-958.696-5.403zM532.54 104.83c2.29 2.49 8.8 13.01 14.35 23.34 5.55 10.52 12.24 22.58 14.73 26.98l4.59 8.03-3.64 6.89c-4.97 8.99-11.86 12.44-24.87 12.44-13.39 0-15.31-2.68-20.47-27.36-1.91-9.95-5.74-22.96-8.61-28.89-6.12-13.58-5.55-18.37 3.06-22.58 9.19-4.59 15.7-4.21 20.86 1.15zm-161.47 11.48c12.44 5.93 19.9 13.97 29.46 32.33 12.05 22.96 9.95 33.86-7.08 36.73-11.48 1.91-18.18-2.3-24.49-15.69-2.87-6.12-8.23-15.31-12.05-20.47-7.84-10.91-9.18-23.53-3.44-32.33 4.02-6.31 5.55-6.31 17.6-.57zm-106.18 69.26c15.31 10.33 34.44 35.2 34.44 44.96 0 6.7-2.49 8.99-16.84 15.88-9.57 4.59-12.63 5.17-16.07 3.64-6.31-2.87-24.3-39.22-25.83-51.85-1.15-9.57-.96-9.76 5.36-12.63 8.61-3.64 13.39-3.64 18.94 0zm305.92 1.53c1.15 1.15 3.63 10.33 5.74 20.28 2.87 13.2 7.08 24.49 15.5 41.13 11.48 22.96 13.58 31.19 8.99 35.01-1.34 1.15-6.7 3.06-11.86 4.4-5.36 1.15-14.16 4.78-19.51 7.84-5.55 3.06-10.91 5.17-11.86 4.59-2.49-1.53-6.89-14.54-10.71-31.76-1.91-7.84-5.74-20.47-8.61-27.74-6.5-16.64-10.14-32.33-9.18-40.94.57-6.12 1.15-6.7 12.05-9.76 6.31-1.72 13.01-4.02 14.92-4.97 4.2-2.48 11.85-1.34 14.53 1.92zm-151.53 2.86c4.78 2.3 10.71 7.46 14.92 13.01 13.97 18.37 43.05 64.67 42.66 67.54-.38 1.53-5.17 4.4-10.9 6.31-5.74 1.91-12.82 5.55-15.88 8.04-6.5 5.55-17.6 6.31-23.72 1.91-2.29-1.53-6.12-7.65-8.42-13.78-6.31-15.88-18.56-39.99-26.4-52.23-10.14-15.88-8.61-24.11 5.93-31.38 8.04-3.81 12.05-3.81 21.81.58zm256.75 39.8c5.74 5.93 12.44 15.69 15.11 21.43l4.78 10.33-4.21 3.44c-10.52 8.61-23.72 5.93-29.84-5.93-1.53-3.06-6.31-10.52-10.52-16.45-8.61-12.44-9.38-16.26-3.64-22 6.9-6.89 16.08-4.02 28.32 9.18zm-359.3 23.92c3.06 3.06 8.99 11.48 13.2 18.75 4.21 7.27 11.67 16.45 17.22 21.05 9.95 8.23 11.48 12.82 8.42 24.49-2.87 10.33-35.2 18.18-44.39 10.71-2.3-2.1-8.61-13.97-13.78-26.4-5.17-12.43-11.67-26.02-14.35-30.23-7.46-11.1-3.83-17.79 12.24-23.15 10.35-3.45 13.98-2.5 21.44 4.78zm379.77 22.19c3.64 2.3 6.12 8.8 8.42 21.43 1.15 6.89 4.02 18.75 6.12 26.59l4.21 14.16-4.4 3.44c-5.36 4.4-17.03 6.7-21.04 4.21-5.55-3.44-9.95-15.5-13.58-37.69-5.36-31.95-5.55-31.38 4.4-32.33 4.4-.38 9.38-.77 10.91-.96 1.52-.19 3.82.38 4.96 1.15zm-203.37 17.98c5.55 7.84 10.33 19.13 21.62 51.66 9.95 28.31 14.35 37.69 27.55 58.93 26.21 41.71 26.21 53 .19 57.97-8.99 1.72-13.97 4.02-20.66 9.38-4.78 4.02-9.76 7.27-11.1 7.27-5.17 0-15.5-9.18-19.51-17.22-2.3-4.78-6.31-18.37-8.99-30.23-4.02-17.41-8.04-28.32-21.05-55.48-8.8-18.56-17.03-38.26-18.18-43.43-2.87-12.44-3.06-26.21-.57-30.99 4.59-8.42 17.6-13.58 35.2-13.77 10.14-.21 11.29.17 15.5 5.91zm110.97-.57c7.65 2.87 13.78 19.13 21.24 55.67 3.63 18.37 11.48 49.36 17.41 68.88 16.65 55.48 16.45 57.78-4.59 52.8-12.82-3.06-18.18-2.1-28.89 4.4-17.22 10.33-21.43 2.3-24.87-46.49-1.72-25.64-2.1-27.55-15.12-66.39-14.16-41.33-14.92-45.34-11.48-51.85 2.3-4.02 22-13.97 33.86-16.64 3.83-.96 7.27-1.72 7.46-1.91.19-.19 2.49.57 4.98 1.53zm-235.14 42.47c2.68 3.25 8.8 13.39 13.39 22.77 10.91 21.81 16.26 29.46 37.31 52.61 19.32 21.24 30.8 40.75 30.8 52.61 0 8.04-3.06 11.48-14.35 16.07-4.21 1.91-9.37 4.97-11.48 6.89-5.74 5.36-17.03 9.57-25.45 9.57-13.01 0-17.79-8.61-29.08-51.66-8.42-32.52-13.2-41.9-30.23-59.69-13.78-14.35-14.16-15.31-13.2-22.38.38-4.02 2.87-10.14 5.36-13.58 4.97-6.7 23.72-19.13 28.7-19.13 1.92-.01 5.56 2.67 8.23 5.92zm345.72 15.12c4.78 1.34 7.46 3.44 8.23 6.31.57 2.3 1.15 30.04 1.15 61.61 0 42.28-.77 58.74-2.49 62.18-2.3 4.4-3.83 4.97-21.43 6.5-18.56 1.72-18.94 1.53-22.58-2.87-4.21-5.17-3.83-16.07 1.34-34.05 5.55-19.32 9.37-51.85 8.23-69.07-1.34-19.13.38-24.3 10.14-29.08 7.84-4.02 8.23-4.02 17.41-1.53zM181.66 462.98c1.53.77 12.05 13.01 23.34 27.36 11.1 14.35 24.11 30.04 28.7 35.01 4.4 4.97 8.23 10.14 8.23 11.67 0 1.34-5.17 4.97-11.48 8.04-6.5 3.06-12.63 6.7-13.78 8.04-3.83 4.78-8.99 2.49-18.18-8.04-13.01-15.12-18.75-25.83-26.4-49.17-6.5-19.71-8.23-30.04-5.36-32.71 1.54-1.73 10.72-1.73 14.93-.2zm395.08 12.44c4.21 4.21 9.95 12.63 12.63 18.37 4.78 9.76 5.17 12.24 4.98 31.95-.96 45.73 17.79 115.17 38.07 140.81l3.64 4.78-.96-15.31c-3.06-40.56-6.31-57.21-24.68-122.45-9.76-34.63-8.61-41.14 10.33-52.42 8.42-4.97 13.2-4.97 24.68 0 9.18 3.83 19.13 14.73 21.81 23.73.77 2.1 2.11 24.11 3.25 48.79 2.49 51.85 4.02 64.67 10.91 90.68 4.59 17.03 5.36 18.56 6.7 13.39 3.25-11.67 2.3-58.35-1.72-83.99-7.27-44.96-8.99-64.86-6.31-69.64 2.1-4.21 15.31-11.48 20.66-11.67 2.3 0 16.65 5.74 23.34 9.38 4.78 2.68 7.46 18.56 9.57 58.55 1.15 21.04 2.87 50.51 3.83 65.24 1.15 14.92 1.91 38.26 1.91 51.85 0 30.42-3.06 42.28-13.39 52.61-9.38 9.37-17.22 9.76-27.17 1.53l-7.08-5.93-8.8 3.06c-17.6 5.93-32.52 2.49-38.46-8.8l-3.06-5.93-3.63 7.46c-1.91 4.02-5.36 8.42-7.46 9.76-5.93 3.64-34.25 8.42-41.52 7.08-9.76-1.72-11.86-8.23-17.98-54.34-10.16-75.96-12.27-83.99-29.68-111.16-13.58-20.85-20.47-38.07-24.11-59.5-1.91-11.1-1.72-13.97 1.15-21.62 5.36-13.78 11.67-20.28 19.9-20.47 4.02 0 8.8-.77 10.91-1.72 2.1-.96 7.46-1.72 12.05-1.72 7.08-.2 8.99.76 15.69 7.65zm-111.16 8.41c9.76 4.97 18.94 17.98 26.21 37.12 3.83 10.14 9.95 25.25 13.58 33.67 11.1 25.45 18.94 49.36 31.18 96.42 13.01 49.36 12.63 48.41 28.89 73.28 6.12 9.37 11.29 18.94 11.29 20.85 0 7.46-9.76 14.92-24.87 18.75-32.14 8.42-43.05 7.27-48.79-4.97-1.72-3.64-5.36-16.65-7.84-28.89-2.49-12.25-7.46-31.38-11.1-42.47-3.63-11.1-8.99-27.93-11.67-37.31-6.5-21.62-22.58-53.38-36.54-71.94-12.24-16.07-29.46-49.55-29.46-57.2 0-9.38 11.1-21.05 31.95-33.67 11.87-7.08 18.75-8.04 27.17-3.64zm-212.17 68.88c3.06 1.53 12.44 11.29 20.66 21.62 20.09 24.49 22.38 26.4 44 37.69 15.11 7.84 18.94 10.91 22 16.84 3.44 6.7 3.44 7.46.38 12.05-9.37 14.54-31.19 29.46-43.24 29.46-5.55 0-11.29-5.74-26.98-26.79-5.74-7.84-15.5-20.47-21.43-27.74-17.98-22.58-25.83-40.18-23.34-53.57.96-4.98 2.68-6.89 8.42-9.38 9-3.62 12.64-3.82 19.53-.18zm113.64 100.63c2.87 2.3 12.24 14.92 21.04 28.32 17.03 25.64 20.47 29.08 43.05 42.09 23.53 13.39 49.93 32.72 52.04 37.88 4.78 12.82-2.3 29.65-17.6 40.56-15.5 11.48-21.43 10.52-46.3-7.27-28.7-20.47-32.14-23.53-48.79-43.62-8.42-10.33-22.96-25.83-32.33-34.25-13.2-12.05-17.6-17.41-19.51-23.53-3.25-11.29-1.15-19.52 6.12-24.49 3.44-2.49 9.57-7.84 13.78-12.05 6.31-6.51 8.61-7.65 15.5-7.65 5.16 0 9.75 1.34 13 4.01zm312.43 87.63c30.61 3.25 35.97 4.21 43.62 8.61 10.91 6.5 12.82 9.38 21.05 33.67 7.65 22.19 8.8 36.16 4.21 45.15-4.98 9.57-7.84 10.91-22 10.14-27.17-1.34-36.73-.38-48.02 5.36-9.57 4.78-11.29 6.7-16.45 17.41-3.64 7.46-8.04 13.39-11.48 15.69-9.57 5.93-65.62 21.05-78.25 21.05-20.66 0-62.56-19.71-82.84-38.84-29.85-28.32-28.31-47.26 5.74-69.07 19.13-12.24 18.18-11.86 45.92-17.6 22.19-4.4 37.88-9.76 40.37-13.78 2.49-4.02 50.13-21.05 59.5-21.24 2.08 0 19.5 1.53 38.63 3.45zm61.22 110.39c3.63 3.83 4.02 5.55 2.3 9.95-5.36 13.97-24.49 23.53-50.51 24.87-22 1.15-25.83-.57-25.83-11.29 0-14.54 10.33-25.25 27.17-28.12 4.59-.77 16.07-1.15 25.45-.77 15.3.58 17.59 1.15 21.42 5.36z"/></svg>